ply
format ascii 1.0
comment Created by Blender 3.0.1 - www.blender.org
element vertex 618
property float x
property float y
property float z
element face 1068
property list uchar uint vertex_indices
end_header
7.217968 7.011662 2.028106
7.340208 7.311677 1.980979
7.139418 7.063631 1.797296
6.963661 6.898699 1.837225
7.037092 6.916720 1.704449
7.500797 7.802046 2.314490
7.847500 7.800743 2.331377
7.520847 7.788730 2.255314
6.838123 6.641365 1.708246
6.907401 6.729346 1.737778
7.453512 7.787766 2.160142
7.358785 7.780457 2.127013
6.907228 6.563949 1.543453
6.832925 6.521685 1.702103
7.200421 7.784315 2.238515
7.169205 7.732694 2.020590
6.947676 6.367434 1.522798
6.880465 6.331082 1.668542
7.032375 7.703749 2.075094
7.451910 7.432793 2.023902
7.021446 6.183693 1.524360
6.961545 6.150730 1.646940
7.365238 7.388266 2.186121
7.366682 7.395138 2.060672
7.124585 6.015935 1.546736
7.078985 5.990866 1.644040
7.267014 7.251664 2.052788
7.254416 5.872891 1.590435
7.223120 5.855565 1.657504
7.368764 7.168072 1.880880
7.308218 7.130799 1.839367
7.298586 5.885092 1.529676
7.187050 7.095675 1.631628
7.122531 6.919860 1.546482
7.583940 7.779192 2.190537
7.034141 6.781855 1.447748
7.384153 7.776382 2.033860
7.018561 6.591105 1.399661
7.244066 7.717043 1.864017
7.050491 6.395767 1.392799
7.352733 7.361940 2.000618
7.107349 6.208344 1.413627
7.188876 6.033813 1.458711
7.142472 6.602966 1.278694
7.498447 7.797660 1.927537
7.365722 7.813547 1.677451
7.166483 6.407969 1.292885
7.194330 7.691061 1.325041
7.206734 6.219184 1.321712
7.450585 7.307267 1.640793
7.268845 6.043719 1.383109
7.374693 7.251211 1.605390
7.353731 5.892099 1.477613
7.228805 7.151667 1.477853
7.197438 6.971932 1.399992
7.656431 7.787871 2.141056
7.160415 6.796676 1.319299
7.417592 5.893429 1.436109
7.514022 7.206835 1.466267
7.380098 7.164937 1.323972
6.957835 4.447738 1.460546
4.492598 4.369021 3.349481
5.483303 4.241070 2.159047
7.333244 6.991770 1.241344
7.758883 7.811348 2.084880
6.555151 4.430731 1.945253
7.304656 6.804188 1.193482
7.650392 7.846343 1.840819
7.292954 6.609091 1.178376
7.520056 7.874654 1.480413
7.298850 6.413953 1.196994
7.380918 7.747496 1.155233
7.321112 6.220011 1.240688
7.547686 7.369439 1.672635
7.361567 6.045381 1.322855
7.809212 7.858912 1.789918
7.691030 7.830151 1.334002
7.448081 6.404622 1.133649
7.516979 7.766152 1.107336
7.449734 6.209700 1.183789
7.773407 7.306920 1.650251
7.463587 6.038765 1.280238
7.784728 7.113141 1.519226
7.487849 5.889235 1.406864
7.554461 7.154535 1.248194
7.512222 6.980698 1.164629
7.851587 7.832586 2.052835
7.480070 6.793072 1.118005
7.458390 6.598573 1.107525
8.120195 7.065566 1.246039
7.739075 7.130224 1.205696
7.704080 6.912639 1.112069
7.923992 7.841606 2.047044
7.666211 6.757191 1.074119
7.931627 7.826578 1.727429
7.633044 6.575589 1.068976
7.901887 7.760034 1.253949
7.605458 6.384024 1.099381
7.708657 7.463986 1.737549
7.586782 6.189942 1.154108
8.707763 7.366561 0.176580
7.571202 6.024287 1.256941
7.561709 5.879611 1.390927
7.764569 6.352762 1.095282
8.039861 7.378846 1.782156
8.339111 7.162939 1.409771
7.727886 6.160839 1.150074
8.360419 7.107277 1.361890
7.680325 6.002700 1.253887
8.402639 7.065989 1.107351
7.636308 5.865018 1.388944
8.115954 6.941664 1.160891
8.233860 6.987156 0.755629
7.996874 7.843832 2.049554
8.080275 6.686676 1.018915
8.018089 7.779998 1.591098
7.839995 6.497558 1.054898
7.458898 4.489904 1.949547
7.130426 4.403793 1.782622
7.245888 4.414680 1.788955
8.363876 6.939925 0.961671
8.636223 6.741977 1.011362
8.073281 7.838394 2.052967
8.573948 6.649689 1.056500
8.119151 7.723548 1.501671
8.131185 6.788754 0.570536
8.737214 7.381244 0.874853
7.953807 6.275502 1.102340
8.435260 7.142585 1.430698
7.866819 6.124585 1.171625
8.826629 7.245831 0.299499
7.786379 5.975302 1.271071
8.558716 6.974999 1.176481
7.708889 5.846336 1.400776
7.895400 5.929845 1.053859
8.729283 7.518960 0.464757
7.855837 5.904119 1.248355
8.380265 7.085806 1.416115
7.776017 5.823611 1.426811
8.532308 6.933514 1.238827
7.634693 5.745624 1.555477
7.668961 5.734027 1.568790
8.660182 6.724903 1.079276
8.123353 7.826801 2.071258
7.552187 4.488351 1.909764
7.347109 4.428362 1.782816
8.527774 6.596746 1.083154
8.016599 7.432906 2.007052
8.145329 6.218245 0.975832
8.260396 7.281100 1.790724
8.102948 6.293583 0.987105
9.209002 7.124859 0.543241
8.168865 7.806939 2.098098
8.528297 6.756795 0.743787
8.390368 7.638530 1.816518
8.272639 6.360211 0.870611
8.625868 7.502636 1.511374
8.181098 6.092263 1.160593
8.988361 7.363706 1.064850
7.966383 5.703672 1.309288
8.922552 7.374893 0.681406
7.901762 5.790414 1.268482
8.352219 7.174282 1.476721
7.835403 5.798381 1.465245
8.575931 6.843073 1.290173
7.699347 5.721100 1.588396
8.610696 6.795794 1.226157
9.100595 7.162226 1.235662
8.171411 6.066197 1.158241
7.968719 5.747796 1.333833
8.440312 7.027993 1.757749
7.879562 5.786810 1.460128
8.262403 6.315329 1.136303
7.724686 5.707244 1.613686
8.557794 6.655374 1.432414
8.206840 7.780086 2.127946
4.458922 4.341677 3.459036
3.844116 4.306859 3.828958
8.629787 6.603993 1.145177
8.471296 7.617069 1.924376
8.463303 6.376951 1.229514
8.657373 7.494261 1.752623
8.268932 6.102937 1.154981
8.244706 7.295531 2.008415
8.546579 6.424131 1.520302
8.538405 7.603287 2.026288
8.383937 6.240305 1.183215
8.699126 7.464986 1.860763
8.311218 6.088935 1.198868
8.818514 7.343714 1.749621
8.206399 5.919615 1.347221
8.368961 7.169145 1.999016
8.018664 5.746675 1.334457
8.598404 6.931275 2.623112
7.900725 5.768681 1.423756
8.291363 6.323394 1.156622
7.744010 5.692981 1.643682
8.338175 6.312957 1.275630
8.232695 7.750736 2.161441
7.441441 4.443567 1.754311
8.277015 5.892535 1.613602
8.001925 5.703528 1.208428
8.359742 6.969694 2.189434
7.912273 5.743417 1.426950
8.232351 6.577249 1.373429
7.756593 5.678848 1.677226
8.093357 6.523921 0.817350
8.253776 7.726218 2.192571
5.037261 4.355447 3.040819
8.495789 6.410613 1.758042
8.576152 7.575172 2.144263
8.337218 6.161911 1.617097
8.236009 7.309050 2.188636
8.380972 6.043146 1.614088
8.286551 7.252329 2.129698
8.346395 7.156847 2.116859
8.592216 7.547783 2.264549
8.423257 6.166509 1.856028
8.800644 7.427878 2.194724
8.383266 6.015321 1.796406
8.862140 7.319078 2.188627
8.276154 5.851864 1.725433
8.272883 7.171560 2.245616
8.400050 6.664179 1.163149
8.285700 7.001304 2.127656
7.929183 5.718946 1.528162
8.318869 6.864433 2.095304
7.761973 5.665378 1.713026
8.270213 6.745526 1.705433
8.256889 7.702363 2.238723
7.525453 4.459266 1.703318
8.382590 6.353939 1.856082
8.269837 6.987926 2.207559
7.987089 5.658869 1.283893
7.941878 5.663353 1.745589
8.256466 6.839364 2.095977
8.317801 6.648485 1.850146
8.245543 7.674554 2.305530
8.271334 6.062592 2.044097
8.587633 7.533594 2.372036
8.169637 5.767770 1.688060
8.808140 7.395633 2.344283
8.058921 5.694468 1.330332
8.271645 7.278505 2.330290
8.166454 5.733722 1.607560
8.209580 7.188531 2.363258
8.287092 6.106802 2.158056
8.792803 7.341182 2.538988
8.239326 5.880181 2.042608
8.882876 7.222537 2.542694
8.199482 5.745432 1.955990
8.264524 7.118640 2.385812
8.075361 5.665757 1.867481
8.228328 6.810422 2.326229
8.266800 6.771085 2.054968
8.290028 6.508535 2.301310
8.209455 7.654226 2.389258
7.811221 4.504839 1.531526
7.595157 4.475078 1.632805
7.644781 4.491098 1.549259
8.406851 6.249725 2.458182
8.553421 7.524783 2.492810
7.216475 4.459417 1.534364
6.860556 4.391874 1.673788
8.449887 6.948158 2.929281
8.058920 5.996972 2.672895
8.209048 6.429090 2.466894
8.199478 7.642636 2.476866
7.666255 4.505661 1.427526
8.229221 6.265167 2.408052
8.519817 7.520244 2.638398
8.237222 6.101645 2.328690
8.729730 7.299036 2.760695
8.248395 5.903568 2.234274
8.837510 7.035588 2.833385
8.177885 5.758288 2.131287
8.792356 6.736681 2.906843
8.053711 5.669153 2.024667
8.144102 5.878880 2.360888
8.644652 7.260208 2.966399
8.712711 6.932777 3.082683
8.082467 5.748145 2.240091
8.216628 6.903133 2.678413
7.983160 5.663284 2.111884
9.016464 6.517811 3.344450
7.856471 5.617355 1.980217
7.900550 5.629682 1.919403
8.426233 6.803004 2.971200
7.358057 4.505301 1.486153
8.136806 6.340727 2.673582
8.173323 7.642415 2.558042
8.153316 6.211479 2.559567
8.472590 7.509777 2.777623
8.174105 6.031851 2.469141
7.421040 4.528245 1.424973
8.147781 6.519088 2.817479
8.122870 6.357925 2.774118
8.139791 7.655795 2.623703
7.441509 4.541882 1.364792
8.076283 6.187575 2.693165
8.394943 7.493484 2.877542
8.058515 6.012896 2.593579
8.565522 7.207518 3.128766
7.953651 5.919692 2.472020
8.685578 6.846269 3.293699
7.965931 5.747798 2.334819
8.242668 6.889830 2.851264
7.904557 5.653347 2.186407
8.254345 6.758771 2.903817
7.802008 5.610008 2.032283
8.443360 7.180367 3.264265
8.536315 6.803035 3.475456
7.859693 5.739870 2.411204
8.123876 6.834981 2.926265
7.816328 5.649268 2.245720
8.073513 6.648252 2.934396
7.739209 5.607859 2.073657
8.039121 6.487918 2.920337
7.438031 4.553248 1.314504
7.993876 6.300591 2.876699
8.096726 7.677906 2.666777
7.421061 4.564512 1.275490
7.939919 6.141062 2.790910
8.284706 7.473593 2.948946
7.951221 5.992796 2.695970
7.851443 5.903456 2.563864
7.931887 6.530957 3.030021
7.915927 6.268092 2.947399
8.042233 7.687611 2.684592
7.395735 4.575687 1.247065
7.884240 6.085584 2.864409
8.166258 7.473217 3.013406
7.850259 5.948551 2.759224
8.269009 7.197901 3.356036
7.796832 5.831381 2.621057
8.307085 6.825990 3.583107
7.762823 5.724743 2.462694
8.017888 6.873719 2.989004
7.723038 5.650822 2.285502
8.010965 6.680633 3.010329
7.364902 4.586231 1.228149
7.646653 5.729245 2.492786
7.983804 6.942664 3.706100
7.809953 6.934598 3.073282
7.621429 5.661240 2.310049
7.850873 6.664226 3.045653
7.944360 6.542902 2.976582
7.787285 6.311356 3.009612
7.978679 7.694180 2.697808
7.749000 6.124608 2.920243
8.027352 7.509781 3.075114
7.714215 5.962523 2.804639
8.080992 7.359312 3.462191
7.683743 5.828150 2.656170
7.896146 7.691825 2.720848
7.605465 6.307738 2.989454
7.576131 6.147442 2.909012
7.843819 7.496459 3.085734
7.555559 5.989282 2.804215
7.793616 7.082320 3.352417
7.530113 5.854731 2.661035
7.737292 7.073972 2.959198
7.519350 5.750652 2.495753
7.696822 6.891400 3.011840
7.518361 5.679794 2.312809
7.676708 6.677235 3.022743
7.524823 5.633347 2.120300
7.598094 5.619596 2.118504
7.631548 6.497556 3.013087
7.611720 7.049917 2.904627
7.541291 6.898306 2.935211
7.391040 5.783282 2.473340
7.413630 5.694870 2.298040
7.500494 6.738050 2.947962
7.453326 5.651901 2.108375
7.450377 6.564012 2.949456
7.418866 6.378566 2.931949
7.780219 7.660883 2.775546
7.393910 6.197709 2.875855
7.653741 7.443276 3.134630
7.381081 6.029160 2.776338
7.502584 7.287462 3.455521
7.375706 5.886554 2.639654
7.253402 6.456564 2.844838
7.225078 6.273539 2.798539
7.484606 7.481110 3.082009
7.219837 6.095800 2.710406
7.235014 7.173125 3.335030
7.231629 5.938681 2.581344
7.489288 7.091752 2.849159
7.264623 5.816162 2.429516
7.409802 6.961181 2.874636
7.316930 5.727488 2.260175
7.335622 6.803252 2.875998
7.386518 5.674325 2.082126
7.289643 6.643882 2.864813
7.654445 7.657092 2.715700
7.154476 5.863582 2.358740
7.230455 5.764798 2.204353
7.218841 6.900267 2.793269
7.326941 5.699875 2.043724
7.134840 6.826311 2.751379
7.070470 6.775571 2.704954
7.595480 7.702895 2.602964
7.075212 6.444365 2.731786
7.432705 7.560013 2.959279
7.092000 6.223350 2.697734
7.144110 7.289180 3.230610
7.103013 5.998360 2.496522
6.969227 7.085243 3.324097
7.308348 7.042417 2.805685
7.026913 6.347843 2.877644
6.958972 6.232061 2.495111
7.241134 7.457495 3.046229
6.994939 6.059499 2.390757
6.941409 7.256145 3.192650
7.062355 5.916078 2.267046
7.260868 7.132574 2.741830
7.157865 5.805051 2.132571
7.124299 7.038762 2.711142
7.276945 5.727346 1.994276
7.034060 6.866648 2.642128
7.117013 4.590023 1.310956
7.154418 4.601604 1.283579
6.990480 6.640874 2.630612
7.573956 7.777874 2.504318
6.990276 4.711974 1.254480
7.447426 7.629599 2.773886
7.101807 5.845813 2.047660
7.238473 5.755641 1.935628
6.975121 6.922206 2.568726
7.071235 4.571601 1.340705
6.902796 6.721953 2.511425
7.545074 7.804955 2.450999
6.958980 4.694647 1.321548
6.850549 6.527348 2.382464
7.454799 7.701968 2.620004
6.868421 6.301319 2.362498
7.282777 7.578171 2.821882
6.911616 6.120318 2.266070
6.975759 7.423373 2.994532
6.991271 5.968563 2.159380
7.254211 7.217485 2.658913
7.109716 7.113265 2.603769
7.285910 7.692298 2.650908
6.807721 6.363670 2.210383
6.856732 6.179987 2.125920
7.038809 7.577595 2.716406
6.944236 6.019946 2.038938
7.274784 7.283488 2.538109
7.064996 5.886911 1.952499
7.094862 7.110355 2.510412
7.213117 5.783772 1.870050
6.966031 7.005845 2.442691
7.123087 3.334871 0.874503
7.088820 3.346468 0.861191
6.855721 6.792636 2.370757
7.510727 7.813838 2.423692
6.840645 3.275169 1.387840
6.907453 3.252745 1.414088
6.804193 6.583934 2.273300
7.416747 7.781620 2.526783
7.034538 7.029366 2.265307
7.198137 3.293825 0.949396
7.178813 3.308088 0.919400
6.874446 6.871691 2.257685
7.487090 7.817275 2.398202
7.048587 5.925748 1.850970
7.201808 5.810428 1.800022
6.655934 3.411272 1.105735
6.502713 3.526592 1.156683
6.788573 6.665869 2.067556
7.374764 7.809322 2.460822
6.785089 6.425988 2.048090
7.222620 7.731181 2.455815
6.832339 6.236506 1.975544
7.093101 7.678165 2.437505
6.923298 6.068867 1.910076
7.311595 7.329710 2.409525
7.151332 7.222558 2.334580
6.978950 3.234190 1.426013
7.052221 3.220441 1.424218
6.798673 6.474832 1.899720
6.842263 6.288676 1.820822
7.303717 7.966666 1.577593
6.929183 6.113370 1.777825
7.315656 7.361740 2.355496
7.053278 5.961031 1.746874
7.151488 7.251224 2.216894
7.205151 5.834904 1.728262
7.162461 6.989298 2.118066
7.193336 3.208703 1.379370
7.256135 3.210852 1.337996
6.883632 6.907310 2.106059
7.487368 7.813172 2.362937
7.396004 3.264197 1.051303
7.216100 3.266222 1.018740
6.807575 6.712373 1.903631
7.451071 7.801439 2.271727
7.619404 7.790227 2.080942
6.659277 3.435748 1.033975
7.090435 3.465862 0.694658
7.015835 3.480454 0.696641
7.153474 3.321944 0.894110
6.692600 3.356484 1.241341
6.731072 3.328190 1.299990
6.677247 3.456409 0.963217
6.871718 3.494273 0.741823
6.807858 3.492944 0.783327
6.781068 3.300719 1.349438
7.354676 3.230526 1.225117
7.529488 3.266601 1.173195
7.210720 3.279692 0.982940
7.310597 3.218199 1.285931
6.667243 3.384616 1.175764
6.941976 3.490079 0.712578
6.752713 3.485935 0.835390
6.708543 3.473735 0.896149
7.177165 3.251666 1.591216
7.270454 3.250112 1.551433
6.483433 4.465573 1.942412
7.153451 4.732512 1.100154
7.089591 4.731182 1.141658
6.891151 4.640612 1.474397
6.784446 4.764830 1.515014
6.764048 4.409394 1.866109
7.034446 4.724174 1.193721
6.818393 4.601126 1.572299
6.704765 4.556437 1.697130
7.372167 4.704100 1.052989
7.297568 4.718693 1.054972
6.933669 4.672429 1.393505
6.970676 4.400140 1.801191
6.568543 4.509389 1.836074
7.223709 4.728317 1.070909
4.869453 4.171906 2.112247
1.518253 6.136528 -0.288707
1.659357 6.117830 -0.610548
1.895376 6.062828 -0.557331
1.832305 6.152655 -0.727806
1.894100 5.861656 0.316119
1.992656 6.118692 -0.770573
2.009562 5.872542 0.322452
1.993800 6.365601 -0.909571
7.007990 4.546489 1.376805
6.624537 4.446876 1.620572
5.072845 4.575244 0.157241
5.209067 4.622293 0.018296
1.819267 6.435784 -0.716105
5.322695 4.666982 -0.106534
6.918681 4.515553 1.427932
4.808881 5.095719 5.273651
5.845407 5.226581 0.381608
5.395453 4.706468 -0.204436
1.953501 6.186506 -0.803187
1.859628 6.213154 -0.783044
2.121911 6.157601 -0.852998
1.923673 6.102232 -0.729697
6.026679 5.337441 0.684177
5.944339 5.332309 0.536228
5.847454 5.115250 1.016485
5.838441 5.107183 0.900970
5.631935 5.138977 0.366120
5.733326 5.266668 0.482268
5.880890 5.157637 0.617299
5.562589 5.035745 0.295370
5.980225 5.616953 0.685074
-1.317304 7.581761 -0.439034
8.595406 5.482244 -3.082813
5.181536 5.423924 -1.607064
0.250861 6.468244 -0.292012
1.646885 5.320222 -0.047764
4.809236 6.203501 -2.014685
0.625217 7.089692 -0.898764
1.887676 5.525843 -0.297624
1.869082 5.529781 -0.292664
11.465459 4.578486 -3.634301
-2.808936 7.601858 0.172835
1.701810 6.784820 -1.130312
-5.978228 6.653646 2.189644
3.618093 5.702351 -1.151961
11.298066 5.833527 -4.471889
-6.145538 7.908684 1.352017
6.073619 5.320614 -1.906959
1.377026 7.396627 -1.436506
3.450821 6.957390 -1.989608
5.681665 4.215363 -0.942834
2.279646 6.631089 -1.261754
-2.416959 8.707106 -0.791297
0.985056 6.291381 -0.472375
2.639485 5.832778 -0.835365
0.510668 6.283669 -0.267587
-3.354745 6.666842 1.078406
4.531271 4.996569 -1.024857
3.487598 6.334516 -1.554467
-0.377820 6.717687 -0.208470
14.442582 4.629419 -4.921092
-4.176391 8.572786 0.044548
-2.284612 7.736579 -0.144941
10.576917 5.012632 -3.575017
6.328490 3.929462 -1.007612
2.926480 6.345182 -1.326535
-0.525178 7.870887 -0.980798
2.876838 5.455163 -0.661878
3.136397 6.023385 -1.181906
1.354417 6.400805 -0.706646
-0.277509 5.965066 0.293854
0.431305 5.931232 0.020684
2.217057 5.553011 -0.455585
2.381592 6.016954 -0.860293
0.362894 6.444512 -0.321897
2.727804 6.993236 -1.712135
9.587820 2.122442 -1.068656
6.410959 3.526680 -0.750444
2.486547 6.312959 -1.118712
2.922577 5.287291 -0.559625
1.272046 6.803777 -0.963556
3.163833 5.967568 -1.153048
3 0 1 2
3 3 2 4
3 5 6 7
3 3 8 9
3 10 7 11
3 9 12 13
3 14 11 15
3 13 16 17
3 18 15 19
3 17 20 21
3 22 19 23
3 21 24 25
3 26 23 1
3 25 27 28
3 1 29 30
3 24 31 27
3 2 30 32
3 4 32 33
3 7 6 34
3 4 35 8
3 11 34 36
3 8 37 12
3 15 36 38
3 12 39 16
3 19 38 40
3 16 41 20
3 23 40 29
3 20 42 24
3 35 43 37
3 38 44 45
3 37 46 39
3 40 45 47
3 39 48 41
3 29 47 49
3 41 50 42
3 30 49 51
3 42 52 31
3 32 51 53
3 33 53 54
3 34 6 55
3 33 56 35
3 36 55 44
3 50 57 52
3 53 58 59
3 60 61 62
3 54 59 63
3 55 6 64
3 61 65 62
3 54 66 56
3 44 64 67
3 56 68 43
3 45 67 69
3 43 70 46
3 47 69 71
3 46 72 48
3 49 71 73
3 48 74 50
3 51 73 58
3 69 75 76
3 68 77 70
3 71 76 78
3 70 79 72
3 73 78 80
3 72 81 74
3 58 80 82
3 74 83 57
3 59 82 84
3 63 84 85
3 64 6 86
3 63 87 66
3 67 86 75
3 66 88 68
3 84 89 90
3 85 90 91
3 86 6 92
3 87 91 93
3 75 92 94
3 88 93 95
3 76 94 96
3 88 97 77
3 78 96 98
3 77 99 79
3 80 98 100
3 79 101 81
3 82 100 89
3 81 102 83
3 95 103 97
3 98 104 105
3 97 106 99
3 100 105 107
3 99 108 101
3 89 107 109
3 101 110 102
3 90 109 111
3 90 112 91
3 92 6 113
3 91 114 93
3 94 113 115
3 93 116 95
3 96 115 104
3 117 118 119
3 112 120 121
3 113 6 122
3 114 121 123
3 115 122 124
3 114 125 116
3 104 124 126
3 116 127 103
3 105 126 128
3 103 129 106
3 107 128 130
3 106 131 108
3 109 130 132
3 108 133 110
3 111 132 120
3 127 134 129
3 128 135 130
3 129 136 131
3 130 137 132
3 133 136 138
3 132 139 120
3 140 138 141
3 121 139 142
3 122 6 143
3 144 119 145
3 121 146 123
3 122 147 124
3 123 148 125
3 126 147 149
3 127 148 150
3 126 151 128
3 143 6 152
3 142 153 146
3 143 154 147
3 148 153 155
3 147 156 149
3 150 155 157
3 149 158 151
3 134 157 159
3 151 160 135
3 136 159 161
3 137 160 162
3 138 161 163
3 137 164 139
3 141 163 165
3 139 166 142
3 158 167 160
3 161 168 169
3 162 167 170
3 163 169 171
3 164 170 172
3 165 171 173
3 164 174 166
3 152 6 175
3 60 176 177
3 153 174 178
3 152 179 154
3 155 178 180
3 154 181 156
3 157 180 182
3 156 183 158
3 159 182 168
3 174 184 178
3 175 185 179
3 178 186 180
3 179 187 181
3 182 186 188
3 181 189 183
3 168 188 190
3 183 191 167
3 169 190 192
3 170 191 193
3 171 192 194
3 172 193 195
3 173 194 196
3 174 195 197
3 175 6 198
3 199 177 176
3 192 200 201
3 191 202 193
3 194 201 203
3 195 202 204
3 196 203 205
3 197 204 206
3 198 6 207
3 60 208 176
3 197 209 184
3 198 210 185
3 186 209 211
3 185 212 187
3 188 211 213
3 187 214 189
3 190 213 200
3 189 215 191
3 207 216 210
3 209 217 211
3 210 218 212
3 213 217 219
3 212 220 214
3 200 219 221
3 214 222 215
3 201 221 223
3 215 224 202
3 203 223 225
3 202 226 204
3 205 225 227
3 204 228 206
3 207 6 229
3 230 176 208
3 206 231 209
3 222 232 224
3 225 233 234
3 224 235 226
3 228 235 236
3 229 6 237
3 228 238 231
3 229 239 216
3 231 240 217
3 216 241 218
3 219 240 242
3 218 243 220
3 221 242 244
3 220 245 222
3 223 244 233
3 238 246 240
3 239 247 241
3 240 248 242
3 241 249 243
3 242 250 244
3 243 251 245
3 233 250 252
3 232 251 253
3 235 253 254
3 236 254 255
3 237 6 256
3 257 258 259
3 238 255 260
3 237 261 239
3 60 262 263
3 254 264 265
3 262 259 263
3 255 265 266
3 256 6 267
3 268 257 259
3 260 266 269
3 261 267 270
3 246 269 271
3 261 272 247
3 246 273 248
3 249 272 274
3 248 275 250
3 251 274 276
3 250 277 252
3 253 276 264
3 271 278 273
3 274 279 280
3 273 281 275
3 276 280 282
3 275 283 277
3 276 284 264
3 277 285 286
3 265 284 287
3 60 288 262
3 266 287 289
3 267 6 290
3 288 268 262
3 266 291 269
3 270 290 292
3 269 293 271
3 272 292 279
3 60 294 288
3 289 295 296
3 290 6 297
3 60 298 294
3 289 299 291
3 292 297 300
3 291 301 293
3 279 300 302
3 293 303 278
3 280 302 304
3 278 305 281
3 282 304 306
3 281 307 283
3 284 306 308
3 283 309 285
3 287 308 295
3 304 310 311
3 303 312 305
3 306 311 313
3 305 314 307
3 308 313 315
3 307 316 309
3 295 315 317
3 60 318 298
3 296 317 319
3 297 6 320
3 60 321 318
3 299 319 322
3 300 320 323
3 299 324 301
3 302 323 310
3 303 324 325
3 319 326 327
3 320 6 328
3 60 329 321
3 322 327 330
3 323 328 331
3 322 332 324
3 310 331 333
3 325 332 334
3 311 333 335
3 325 336 312
3 313 335 337
3 312 338 314
3 315 337 339
3 60 340 329
3 317 339 326
3 334 341 336
3 337 342 343
3 336 344 338
3 339 343 345
3 326 345 346
3 327 346 347
3 328 6 348
3 330 347 349
3 331 348 350
3 332 349 351
3 333 350 352
3 334 351 353
3 335 352 342
3 348 6 354
3 349 355 356
3 350 354 357
3 351 356 358
3 352 357 359
3 353 358 360
3 342 359 361
3 353 362 341
3 343 361 363
3 341 364 344
3 345 363 365
3 344 366 367
3 346 365 368
3 347 368 355
3 363 369 370
3 364 371 372
3 365 370 373
3 364 374 366
3 368 373 375
3 355 375 376
3 354 6 377
3 356 376 378
3 357 377 379
3 358 378 380
3 359 379 381
3 360 380 382
3 361 381 369
3 362 382 371
3 378 383 384
3 377 385 379
3 380 384 386
3 379 387 381
3 382 386 388
3 381 389 369
3 371 388 390
3 370 389 391
3 372 390 392
3 373 391 393
3 374 392 394
3 375 393 395
3 376 395 383
3 377 6 396
3 392 397 398
3 391 399 393
3 394 398 400
3 395 399 401
3 383 401 402
3 396 6 403
3 384 402 404
3 396 405 385
3 386 404 406
3 385 407 387
3 388 406 408
3 387 409 389
3 390 408 397
3 389 410 391
3 406 411 412
3 405 413 407
3 408 412 414
3 407 415 409
3 397 414 416
3 409 417 410
3 398 416 418
3 410 419 399
3 400 418 420
3 399 421 401
3 60 422 423
3 402 421 424
3 403 6 425
3 426 423 422
3 404 424 411
3 403 427 405
3 420 428 429
3 419 430 421
3 60 431 422
3 424 430 432
3 425 6 433
3 434 422 431
3 411 432 435
3 425 436 427
3 412 435 437
3 427 438 413
3 414 437 439
3 413 440 415
3 416 439 441
3 415 442 417
3 418 441 428
3 417 443 419
3 436 444 438
3 439 445 446
3 438 447 440
3 441 446 448
3 440 449 442
3 428 448 450
3 442 451 443
3 429 450 452
3 443 453 430
3 140 141 454
3 432 453 456
3 433 6 457
3 374 394 458
3 435 456 460
3 433 461 436
3 437 460 445
3 451 462 453
3 173 196 463
3 456 462 465
3 457 6 466
3 467 468 469
3 460 465 471
3 457 472 461
3 445 471 473
3 461 474 444
3 446 473 475
3 444 476 447
3 448 475 477
3 447 478 449
3 450 477 467
3 449 479 451
3 367 366 480
3 475 482 483
3 474 484 476
3 477 483 485
3 476 486 478
3 467 485 487
3 478 488 479
3 468 487 489
3 479 490 462
3 309 316 491
3 465 490 493
3 466 6 494
3 227 234 495
3 471 493 497
3 466 498 472
3 473 497 482
3 472 499 474
3 468 489 500
3 493 0 3
3 494 6 5
3 102 110 501
3 497 3 9
3 494 10 498
3 482 9 13
3 498 14 499
3 483 13 17
3 499 18 484
3 485 17 21
3 484 22 486
3 487 21 25
3 486 26 488
3 489 25 28
3 488 0 490
3 0 26 1
3 141 165 503
3 3 0 2
3 3 4 8
3 10 5 7
3 9 8 12
3 14 10 11
3 13 12 16
3 18 14 15
3 17 16 20
3 22 18 19
3 21 20 24
3 26 22 23
3 25 24 27
3 1 23 29
3 24 42 31
3 2 1 30
3 420 429 504
3 4 2 32
3 4 33 35
3 11 7 34
3 8 35 37
3 15 11 36
3 12 37 39
3 19 15 38
3 16 39 41
3 23 19 40
3 20 41 42
3 35 56 43
3 38 36 44
3 37 43 46
3 40 38 45
3 39 46 48
3 29 40 47
3 41 48 50
3 30 29 49
3 42 50 52
3 32 30 51
3 489 28 506
3 33 32 53
3 33 54 56
3 36 34 55
3 50 74 57
3 53 51 58
3 52 57 507
3 54 53 59
3 54 63 66
3 44 55 64
3 56 66 68
3 45 44 67
3 43 68 70
3 47 45 69
3 46 70 72
3 49 47 71
3 48 72 74
3 51 49 73
3 69 67 75
3 68 88 77
3 71 69 76
3 70 77 79
3 73 71 78
3 72 79 81
3 58 73 80
3 74 81 83
3 59 58 82
3 394 400 509
3 63 59 84
3 63 85 87
3 67 64 86
3 66 87 88
3 84 82 89
3 252 286 510
3 85 84 90
3 87 85 91
3 75 86 92
3 88 87 93
3 76 75 94
3 88 95 97
3 78 76 96
3 77 97 99
3 80 78 98
3 79 99 101
3 82 80 100
3 81 101 102
3 95 116 103
3 98 96 104
3 97 103 106
3 100 98 105
3 99 106 108
3 89 100 107
3 101 108 110
3 90 89 109
3 196 205 512
3 90 111 112
3 91 112 114
3 94 92 113
3 93 114 116
3 96 94 115
3 110 133 140
3 112 111 120
3 114 112 121
3 115 113 122
3 114 123 125
3 104 115 124
3 116 125 127
3 105 104 126
3 103 127 129
3 107 105 128
3 106 129 131
3 109 107 130
3 108 131 133
3 111 109 132
3 127 150 134
3 128 151 135
3 129 134 136
3 130 135 137
3 133 131 136
3 132 137 139
3 140 133 138
3 121 120 139
3 121 142 146
3 122 143 147
3 123 146 148
3 126 124 147
3 127 125 148
3 126 149 151
3 142 166 153
3 143 152 154
3 148 146 153
3 147 154 156
3 150 148 155
3 149 156 158
3 134 150 157
3 151 158 160
3 136 134 159
3 137 135 160
3 138 136 161
3 137 162 164
3 141 138 163
3 139 164 166
3 158 183 167
3 161 159 168
3 162 160 167
3 163 161 169
3 164 162 170
3 165 163 171
3 164 172 174
3 153 166 174
3 152 175 179
3 155 153 178
3 154 179 181
3 157 155 180
3 156 181 183
3 159 157 182
3 174 197 184
3 175 198 185
3 178 184 186
3 179 185 187
3 182 180 186
3 181 187 189
3 168 182 188
3 183 189 191
3 169 168 190
3 170 167 191
3 171 169 192
3 172 170 193
3 173 171 194
3 174 172 195
3 192 190 200
3 191 215 202
3 194 192 201
3 195 193 202
3 196 194 203
3 197 195 204
3 197 206 209
3 198 207 210
3 186 184 209
3 185 210 212
3 188 186 211
3 187 212 214
3 190 188 213
3 189 214 215
3 207 229 216
3 209 231 217
3 210 216 218
3 213 211 217
3 212 218 220
3 200 213 219
3 214 220 222
3 201 200 221
3 215 222 224
3 203 201 223
3 202 224 226
3 205 203 225
3 204 226 228
3 206 228 231
3 222 245 232
3 225 223 233
3 224 232 235
3 227 225 234
3 228 226 235
3 228 236 238
3 229 237 239
3 231 238 240
3 216 239 241
3 219 217 240
3 218 241 243
3 221 219 242
3 220 243 245
3 223 221 244
3 238 260 246
3 239 261 247
3 240 246 248
3 241 247 249
3 242 248 250
3 243 249 251
3 233 244 250
3 232 245 251
3 234 233 252
3 235 232 253
3 286 285 513
3 236 235 254
3 238 236 255
3 237 256 261
3 252 277 286
3 254 253 264
3 429 452 514
3 255 254 265
3 260 255 266
3 261 256 267
3 246 260 269
3 261 270 272
3 246 271 273
3 249 247 272
3 248 273 275
3 251 249 274
3 250 275 277
3 253 251 276
3 271 293 278
3 274 272 279
3 273 278 281
3 276 274 280
3 275 281 283
3 276 282 284
3 277 283 285
3 265 264 284
3 57 83 515
3 266 265 287
3 266 289 291
3 270 267 290
3 269 291 293
3 272 270 292
3 27 31 516
3 289 287 295
3 289 296 299
3 292 290 297
3 291 299 301
3 279 292 300
3 293 301 303
3 280 279 302
3 278 303 305
3 282 280 304
3 281 305 307
3 284 282 306
3 283 307 309
3 287 284 308
3 304 302 310
3 303 325 312
3 306 304 311
3 305 312 314
3 308 306 313
3 307 314 316
3 295 308 315
3 28 27 517
3 296 295 317
3 299 296 319
3 300 297 320
3 299 322 324
3 302 300 323
3 303 301 324
3 319 317 326
3 322 319 327
3 323 320 328
3 322 330 332
3 310 323 331
3 325 324 332
3 311 310 333
3 325 334 336
3 313 311 335
3 312 336 338
3 315 313 337
3 366 374 459
3 317 315 339
3 314 338 518
3 334 353 341
3 337 335 342
3 336 341 344
3 339 337 343
3 338 344 367
3 326 339 345
3 165 173 464
3 327 326 346
3 330 327 347
3 331 328 348
3 332 330 349
3 333 331 350
3 334 332 351
3 335 333 352
3 349 347 355
3 350 348 354
3 351 349 356
3 352 350 357
3 353 351 358
3 342 352 359
3 353 360 362
3 343 342 361
3 341 362 364
3 345 343 363
3 344 364 366
3 346 345 365
3 205 227 496
3 347 346 368
3 363 361 369
3 364 362 371
3 365 363 370
3 364 372 374
3 368 365 373
3 400 420 505
3 355 368 375
3 356 355 376
3 357 354 377
3 358 356 378
3 359 357 379
3 360 358 380
3 361 359 381
3 362 360 382
3 378 376 383
3 377 396 385
3 380 378 384
3 379 385 387
3 382 380 386
3 381 387 389
3 371 382 388
3 370 369 389
3 372 371 390
3 373 370 391
3 374 372 392
3 375 373 393
3 31 52 508
3 376 375 395
3 392 390 397
3 391 410 399
3 394 392 398
3 395 393 399
3 110 140 455
3 383 395 401
3 384 383 402
3 396 403 405
3 386 384 404
3 385 405 407
3 388 386 406
3 387 407 409
3 390 388 408
3 389 409 410
3 406 404 411
3 405 427 413
3 408 406 412
3 407 413 415
3 397 408 414
3 409 415 417
3 398 397 416
3 410 417 419
3 400 398 418
3 399 419 421
3 83 102 502
3 402 401 421
3 404 402 424
3 403 425 427
3 420 418 428
3 419 443 430
3 285 309 492
3 424 421 430
3 411 424 432
3 425 433 436
3 412 411 435
3 427 436 438
3 414 412 437
3 413 438 440
3 416 414 439
3 415 440 442
3 418 416 441
3 417 442 443
3 436 461 444
3 439 437 445
3 438 444 447
3 441 439 446
3 440 447 449
3 428 441 448
3 442 449 451
3 429 428 450
3 443 451 453
3 234 252 511
3 432 430 453
3 435 432 456
3 433 457 461
3 437 435 460
3 451 479 462
3 452 467 470
3 456 453 462
3 460 456 465
3 457 466 472
3 445 460 471
3 461 472 474
3 446 445 473
3 444 474 476
3 448 446 475
3 447 476 478
3 450 448 477
3 449 478 479
3 452 450 467
3 475 473 482
3 474 499 484
3 477 475 483
3 476 484 486
3 467 477 485
3 478 486 488
3 468 467 487
3 479 488 490
3 338 367 481
3 465 462 490
3 471 465 493
3 466 494 498
3 473 471 497
3 472 498 499
3 316 314 519
3 493 490 0
3 497 493 3
3 494 5 10
3 482 497 9
3 498 10 14
3 483 482 13
3 499 14 18
3 485 483 17
3 484 18 22
3 487 485 21
3 486 22 26
3 489 487 25
3 488 26 0
3 464 463 298
3 458 509 520
3 510 513 230
3 503 464 318
3 511 510 258
3 508 507 521
3 519 518 117
3 454 503 321
3 470 469 523
3 455 454 329
3 506 517 426
3 459 458 65
3 495 511 257
3 496 495 268
3 516 508 522
3 504 514 527
3 501 455 340
3 502 501 529
3 500 506 434
3 480 459 525
3 492 491 145
3 517 516 526
3 505 504 528
3 518 481 118
3 515 502 530
3 481 480 532
3 491 519 144
3 513 492 199
3 509 505 533
3 469 500 531
3 514 470 524
3 512 496 288
3 507 515 534
3 463 512 294
3 520 535 536
3 535 536 537
3 528 533 546
3 527 524 548
3 533 520 536
3 550 531 544
3 60 550 544
3 544 434 431
3 60 544 431
3 434 426 422
3 60 545 537
3 262 268 259
3 258 208 60
3 258 230 208
3 230 199 176
3 199 145 177
3 144 117 119
3 119 551 60
3 119 118 551
3 532 61 60
3 532 525 61
3 61 525 65
3 62 65 520
3 62 520 533
3 118 119 542
3 528 527 549
3 550 523 531
3 544 531 434
3 537 549 539
3 545 537 552
3 539 553 554
3 555 556 557
3 549 548 553
3 537 547 549
3 539 549 553
3 524 523 553
3 545 528 547
3 550 60 541
3 523 550 554
3 558 552 559
3 540 542 560
3 547 546 562
3 537 539 559
3 538 541 558
3 537 547 563
3 541 537 552
3 546 536 565
3 539 541 558
3 535 565 562
3 340 60 423
3 567 568 569
3 539 554 571
3 554 541 573
3 574 575 576
3 578 579 580
3 582 583 584
3 586 587 588
3 590 591 592
3 591 594 595
3 596 597 598
3 600 601 602
3 593 592 604
3 592 595 606
3 607 608 609
3 611 612 613
3 573 572 556
3 572 571 557
3 571 573 555
3 605 604 568
3 604 606 569
3 606 615 570
3 615 605 567
3 541 539 575
3 539 591 576
3 591 590 577
3 590 541 574
3 539 572 579
3 572 594 580
3 594 591 581
3 591 539 578
3 572 573 583
3 573 616 584
3 616 594 585
3 594 572 582
3 573 541 587
3 541 590 588
3 590 616 589
3 616 573 586
3 594 616 597
3 616 617 598
3 617 595 599
3 595 594 596
3 616 590 601
3 590 593 602
3 593 617 603
3 617 616 600
3 595 617 608
3 617 615 609
3 615 606 610
3 606 595 607
3 617 593 612
3 593 605 613
3 605 615 614
3 615 617 611
